<?xml version="1.0" encoding="UTF-8"?>
<svg width="169px" height="23px" viewBox="0 0 169 23" version="1.1" xmlns="http://www.w3.org/2000/svg" xmlns:xlink="http://www.w3.org/1999/xlink">
    <!-- Generator: Sketch 47 (45396) - http://www.bohemiancoding.com/sketch -->
    <title>Group</title>
    <desc>Created with Sketch.</desc>
    <defs>
        <linearGradient x1="100%" y1="100%" x2="0%" y2="0%" id="linearGradient-1">
            <stop stop-color="#B133FF" offset="0%"></stop>
            <stop stop-color="#4B33FF" offset="100%"></stop>
        </linearGradient>
        <path d="M14.477,10.414 L14.477,19.342 C14.477,21.295 14.911,21.729 15.438,21.915 L15.438,22.566 L10.757,22.566 C10.509,21.791 10.447,21.543 10.354,20.613 C9.362,21.636 7.967,23 5.022,23 C2.542,23 0,21.605 0,18.195 C0,14.971 2.046,13.328 4.805,12.925 L8.711,12.336 C9.393,12.243 10.23,11.964 10.23,11.034 C10.23,9.205 8.494,9.112 7.378,9.112 C5.208,9.112 4.836,10.445 4.712,11.406 L0.527,11.406 C1.023,6.353 4.526,5.64 7.905,5.64 C10.23,5.64 14.477,6.353 14.477,10.414 Z M10.23,16.645 L10.23,14.537 C9.796,14.878 9.083,15.157 7.285,15.436 C5.673,15.715 4.34,16.118 4.34,17.916 C4.34,19.435 5.518,19.9 6.355,19.9 C8.277,19.9 10.23,18.66 10.23,16.645 Z M32.271,6.074 L27.652,6.074 L24.149,18.226 L24.087,18.226 L20.677,6.074 L15.841,6.074 L21.762,22.566 L26.319,22.566 L32.271,6.074 Z M34.379,6.074 L34.379,22.566 L38.719,22.566 L38.719,6.074 L34.379,6.074 Z M38.719,0.091 L34.379,0.091 L34.379,4.121 L38.719,4.121 L38.719,0.091 Z M42.408,22.566 L46.748,22.566 L46.748,13.979 C46.748,12.15 47.368,10.042 50.747,10.042 C51.15,10.042 51.615,10.042 51.987,10.104 L51.987,5.702 C51.708,5.671 51.429,5.64 51.15,5.64 C48.515,5.64 47.523,7.252 46.624,8.926 L46.562,8.926 L46.562,6.074 L42.408,6.074 L42.408,22.566 Z M67.4249999,10.414 L67.4249999,19.342 C67.4249999,21.295 67.8589999,21.729 68.3859999,21.915 L68.3859999,22.566 L63.7049999,22.566 C63.4569999,21.791 63.3949999,21.543 63.3019999,20.613 C62.3099999,21.636 60.9149999,23 57.9699999,23 C55.4899999,23 52.9479999,21.605 52.9479999,18.195 C52.9479999,14.971 54.9939999,13.328 57.7529999,12.925 L61.6589999,12.336 C62.3409999,12.243 63.1779999,11.964 63.1779999,11.034 C63.1779999,9.205 61.4419999,9.112 60.3259999,9.112 C58.1559999,9.112 57.7839999,10.445 57.6599999,11.406 L53.4749999,11.406 C53.9709999,6.353 57.4739999,5.64 60.8529999,5.64 C63.1779999,5.64 67.4249999,6.353 67.4249999,10.414 Z M63.1779999,16.645 L63.1779999,14.537 C62.7439999,14.878 62.0309999,15.157 60.2329999,15.436 C58.6209999,15.715 57.2879999,16.118 57.2879999,17.916 C57.2879999,19.435 58.4659999,19.9 59.3029999,19.9 C61.2249999,19.9 63.1779999,18.66 63.1779999,16.645 Z M75.3299999,0.308 L70.9899999,0.308 L70.9899999,22.566 L75.3299999,22.566 L75.3299999,0.308 Z M98.6729999,14.444 C98.6729999,11.84 97.7429999,9.391 94.9839999,9.391 C92.0079999,9.391 91.2639999,12.057 91.2639999,14.692 C91.2639999,17.141 92.3489999,19.435 95.1079999,19.435 C97.8979999,19.435 98.6729999,16.397 98.6729999,14.444 Z M91.4499999,0.308 L91.4499999,8.213 L91.5119999,8.213 C92.1939999,7.159 93.4959999,5.64 96.2859999,5.64 C99.9129999,5.64 103.137,8.43 103.137,14.134 C103.137,18.66 101.091,23 96.1929999,23 C94.3949999,23 92.4729999,22.349 91.4189999,20.489 L91.3569999,20.489 L91.3569999,22.566 L87.1099999,22.566 L87.1099999,0.308 L91.4499999,0.308 Z M121.644,14.32 C121.644,20.272 117.645,23 113.212,23 C108.779,23 104.78,20.272 104.78,14.32 C104.78,8.368 108.779,5.64 113.212,5.64 C117.645,5.64 121.644,8.368 121.644,14.32 Z M117.18,14.32 C117.18,12.212 116.56,9.298 113.212,9.298 C109.864,9.298 109.244,12.212 109.244,14.32 C109.244,16.428 109.864,19.342 113.212,19.342 C116.56,19.342 117.18,16.428 117.18,14.32 Z M139.159,11.158 C139.159,7.531 136.648,5.64 133.424,5.64 C131.068,5.64 129.208,6.849 128.65,8.213 L128.588,8.213 L128.588,0.308 L124.248,0.308 L124.248,22.566 L128.588,22.566 L128.588,13.111 C128.588,10.6 130.076,9.298 131.998,9.298 C134.757,9.298 134.819,11.344 134.819,12.553 L134.819,22.566 L139.159,22.566 L139.159,11.158 Z M142.724,22.566 L147.064,22.566 L147.064,13.979 C147.064,12.15 147.684,10.042 151.063,10.042 C151.466,10.042 151.931,10.042 152.303,10.104 L152.303,5.702 C152.024,5.671 151.745,5.64 151.466,5.64 C148.831,5.64 147.839,7.252 146.94,8.926 L146.878,8.926 L146.878,6.074 L142.724,6.074 L142.724,22.566 Z M167.741,10.414 L167.741,19.342 C167.741,21.295 168.175,21.729 168.702,21.915 L168.702,22.566 L164.021,22.566 C163.773,21.791 163.711,21.543 163.618,20.613 C162.626,21.636 161.231,23 158.286,23 C155.806,23 153.264,21.605 153.264,18.195 C153.264,14.971 155.31,13.328 158.069,12.925 L161.975,12.336 C162.657,12.243 163.494,11.964 163.494,11.034 C163.494,9.205 161.758,9.112 160.642,9.112 C158.472,9.112 158.1,10.445 157.976,11.406 L153.791,11.406 C154.287,6.353 157.79,5.64 161.169,5.64 C163.494,5.64 167.741,6.353 167.741,10.414 Z M163.494,16.645 L163.494,14.537 C163.06,14.878 162.347,15.157 160.549,15.436 C158.937,15.715 157.604,16.118 157.604,17.916 C157.604,19.435 158.782,19.9 159.619,19.9 C161.541,19.9 163.494,18.66 163.494,16.645 Z" id="path-2"></path>
    </defs>
    <g id="Page-1" stroke="none" stroke-width="1" fill="none" fill-rule="evenodd">
        <g id="Artboard-Copy-" transform="translate(-120.000000, -286.000000)">
            <g id="Group" transform="translate(120.000000, 286.000000)">
                <mask id="mask-3" fill="white">
                    <use xlink:href="#path-2"></use>
                </mask>
                <use id="Mask" fill="url(#linearGradient-1)" style="mix-blend-mode: multiply;" xlink:href="#path-2"></use>
                <g mask="url(#mask-3)" id="Rectangle-17">
                    <g transform="translate(83.501844, 4.310658) rotate(-10.000000) translate(-83.501844, -4.310658) translate(-3.498156, -13.689342)">
                        <rect fill="#33A3FF" x="5.1691984e-13" y="-2.95874436e-13" width="174" height="20"></rect>
                        <rect fill="#4B33FF" x="3" y="20" width="171" height="16"></rect>
                    </g>
                </g>
            </g>
        </g>
    </g>
</svg>