<?xml version="1.0" encoding="UTF-8"?>
<svg width="24px" height="32px" viewBox="0 0 24 32" version="1.1" xmlns="http://www.w3.org/2000/svg" xmlns:xlink="http://www.w3.org/1999/xlink">
    <!-- Generator: Sketch 47 (45396) - http://www.bohemiancoding.com/sketch -->
    <title>Group 9</title>
    <desc>Created with Sketch.</desc>
    <defs></defs>
    <g id="Page-1" stroke="none" stroke-width="1" fill="none" fill-rule="evenodd" opacity="0.5">
        <g id="Artboard-Copy-8" transform="translate(-123.000000, -983.000000)" fill-rule="nonzero" fill="#E7A98C">
            <g id="Group-9" transform="translate(123.000000, 983.000000)">
                <path d="M16.3285714,10.2222222 C14.9142857,10.2222222 13.7142857,9.02222222 13.7142857,7.51111111 L13.7142857,0 C13.7142857,0 13.7142857,0 13.7142857,0 L3,0 C1.32857143,0 0,1.37777778 0,3.11111111 L0,28.8888889 C0,30.6222222 1.32857143,32 3,32 L21,32 C22.6714286,32 24,30.6222222 24,28.8888889 L24,10.7555556 C24,10.5777778 24,10.4 23.9571429,10.2222222 L16.3285714,10.2222222 Z M18.4285714,26.2222222 L5.61428571,26.2222222 C5.18571429,26.2222222 4.8,25.9111111 4.71428571,25.4666667 C4.62857143,24.8888889 5.05714286,24.4444444 5.57142857,24.4444444 L18.3857143,24.4444444 C18.8142857,24.4444444 19.2,24.7555556 19.2857143,25.2 C19.3714286,25.7333333 18.9428571,26.2222222 18.4285714,26.2222222 Z M18.4285714,21.3333333 L5.61428571,21.3333333 C5.18571429,21.3333333 4.8,21.0222222 4.71428571,20.5777778 C4.62857143,20 5.05714286,19.5555556 5.57142857,19.5555556 L18.3857143,19.5555556 C18.8142857,19.5555556 19.2,19.8666667 19.2857143,20.3111111 C19.3714286,20.8444444 18.9428571,21.3333333 18.4285714,21.3333333 Z M18.4285714,16.4444444 L5.61428571,16.4444444 C5.18571429,16.4444444 4.8,16.1333333 4.71428571,15.6888889 C4.62857143,15.1111111 5.05714286,14.6666667 5.57142857,14.6666667 L18.3857143,14.6666667 C18.8142857,14.6666667 19.2,14.9777778 19.2857143,15.4222222 C19.3714286,15.9555556 18.9428571,16.4444444 18.4285714,16.4444444 Z" id="Shape"></path>
                <path d="M15,1 L15,7.16091954 C15,8.17241379 15.8135593,9 16.8079096,9 L23,9 L15,1 C15,1 15,1 15,1 Z" id="Shape"></path>
            </g>
        </g>
    </g>
</svg>